<svg width="1600" height="900" viewBox="0 0 1600 900" fill="none" xmlns="http://www.w3.org/2000/svg">
  <rect width="1600" height="900" fill="#080808"/>
  <rect x="74" y="74" width="1452" height="752" rx="36" fill="#101010" stroke="#242424" stroke-width="2"/>
  <circle cx="270" cy="690" r="220" fill="#F2F2F2" fill-opacity="0.28"/>
  <circle cx="1180" cy="240" r="170" fill="#F2F2F2" fill-opacity="0.08"/>
  <rect x="160" y="164" width="440" height="510" rx="28" fill="#151515" stroke="#2F2F2F"/>
  <rect x="196" y="212" width="38" height="180" rx="18" fill="#F5F5F5"/>
  <rect x="252" y="252" width="38" height="140" rx="18" fill="#D8D8D8"/>
  <rect x="308" y="182" width="38" height="210" rx="18" fill="#F5F5F5"/>
  <rect x="364" y="230" width="38" height="162" rx="18" fill="#D8D8D8"/>
  <rect x="420" y="274" width="38" height="118" rx="18" fill="#F5F5F5"/>
  <rect x="476" y="208" width="38" height="184" rx="18" fill="#D8D8D8"/>
  <rect x="532" y="248" width="38" height="144" rx="18" fill="#F5F5F5"/>
  <rect x="700" y="190" width="700" height="140" rx="24" fill="#121212" stroke="#313131"/>
  <text x="760" y="250" fill="#F5F5F5" font-size="50" font-weight="700" font-family="Arial, Helvetica, sans-serif">Handtracking Piano</text>
  <text x="760" y="300" fill="#9D9D9D" font-size="26" font-family="Arial, Helvetica, sans-serif">Real-time computer vision • browser audio • on-device inference</text>
  <rect x="700" y="390" width="700" height="210" rx="28" fill="#131313" stroke="#2C2C2C"/>
  <text x="760" y="470" fill="#EDEDED" font-size="34" font-family="Arial, Helvetica, sans-serif">Sub-50ms hand landmark to note synthesis</text>
  <text x="760" y="530" fill="#9D9D9D" font-size="24" font-family="Arial, Helvetica, sans-serif">MediaPipe + Tone.js + WebAssembly running fully client-side</text>
</svg>
