<svg width="1600" height="900" viewBox="0 0 1600 900" fill="none" xmlns="http://www.w3.org/2000/svg">
  <rect width="1600" height="900" fill="#070707"/>
  <rect x="74" y="74" width="1452" height="752" rx="36" fill="#101010" stroke="#242424" stroke-width="2"/>
  <circle cx="1260" cy="210" r="190" fill="#FFFFFF" fill-opacity="0.08"/>
  <circle cx="230" cy="720" r="220" fill="#FFFFFF" fill-opacity="0.18"/>
  <rect x="148" y="148" width="620" height="600" rx="30" fill="#151515" stroke="#313131"/>
  <rect x="208" y="208" width="500" height="320" rx="24" fill="#0A0A0A"/>
  <path d="M270 450C340 340 430 320 502 402C544 450 596 464 650 430V528H270V450Z" fill="#F2F2F2"/>
  <circle cx="612" cy="286" r="36" fill="#DADADA"/>
  <rect x="208" y="564" width="220" height="92" rx="20" fill="#F4F4F4"/>
  <rect x="454" y="564" width="160" height="92" rx="20" fill="#1D1D1D" stroke="#383838"/>
  <text x="840" y="238" fill="#F5F5F5" font-size="52" font-weight="700" font-family="Arial, Helvetica, sans-serif">PurePixels</text>
  <text x="840" y="296" fill="#9D9D9D" font-size="28" font-family="Arial, Helvetica, sans-serif">FastAPI-powered background removal and full-stack image workflows</text>
  <rect x="840" y="390" width="520" height="170" rx="28" fill="#131313" stroke="#2D2D2D"/>
  <text x="892" y="462" fill="#ECECEC" font-size="30" font-family="Arial, Helvetica, sans-serif">Sub-5 second output latency</text>
  <text x="892" y="514" fill="#9D9D9D" font-size="24" font-family="Arial, Helvetica, sans-serif">Authentication, persistence, and rate-limited API handling</text>
</svg>
